<?xml version="1.0" encoding="UTF-8"?>
<svg version="1.1" xmlns="http://www.w3.org/2000/svg" width="128" height="128">
<path d="M0 0 C2.4375 0.6875 2.4375 0.6875 5 2 C5.8125 4.625 5.8125 4.625 6 7 C6.66 6.34 7.32 5.68 8 5 C10 5 10 5 12 6 C13.25 9.0625 13.25 9.0625 14 12 C15.32 11.01 16.64 10.02 18 9 C20.89932357 11.39509338 21.50168276 13.31245243 22 17 C23.32 16.01 24.64 15.02 26 14 C26.99 14.66 27.98 15.32 29 16 C29.29296875 18.3828125 29.29296875 18.3828125 29.1875 21.125 C29.14689453 22.49011719 29.14689453 22.49011719 29.10546875 23.8828125 C29.07066406 24.58148438 29.03585938 25.28015625 29 26 C29.66 26 30.32 26 31 26 C31 24.35 31 22.7 31 21 C32.32 20.34 33.64 19.68 35 19 C35.99 19.99 36.98 20.98 38 22 C38 27.28 38 32.56 38 38 C13.58 38 -10.84 38 -36 38 C-36 32.72 -36 27.44 -36 22 C-35.01 21.01 -34.02 20.02 -33 19 C-31.68 19.66 -30.36 20.32 -29 21 C-29 22.65 -29 24.3 -29 26 C-28.34 26 -27.68 26 -27 26 C-27 22.7 -27 19.4 -27 16 C-25.68 15.34 -24.36 14.68 -23 14 C-22.01 14.99 -21.02 15.98 -20 17 C-19.7525 16.030625 -19.505 15.06125 -19.25 14.0625 C-18 11 -18 11 -16 10 C-15.34 10 -14.68 10 -14 10 C-13.34 10.66 -12.68 11.32 -12 12 C-11.7525 11.030625 -11.505 10.06125 -11.25 9.0625 C-10 6 -10 6 -8 5 C-7.34 5 -6.68 5 -6 5 C-5.34 5.66 -4.68 6.32 -4 7 C-3.71125 6.21625 -3.4225 5.4325 -3.125 4.625 C-2 2 -2 2 0 0 Z M-4 11 C-3 15 -3 15 -3 15 Z M5 11 C6 15 6 15 6 15 Z M-12 16 C-11 20 -11 20 -11 20 Z M-4 16 C-3 20 -3 20 -3 20 Z M5 16 C6 20 6 20 6 20 Z M13 16 C14 20 14 20 14 20 Z M-20 22 C-19 26 -19 26 -19 26 Z M-12 22 C-11 26 -11 26 -11 26 Z M-4 22 C-3 26 -3 26 -3 26 Z M5 22 C6 26 6 26 6 26 Z M13 22 C14 26 14 26 14 26 Z M21 22 C22 26 22 26 22 26 Z M-29 27 C-29 28.32 -29 29.64 -29 31 C-28.34 31 -27.68 31 -27 31 C-27 29.68 -27 28.36 -27 27 C-27.66 27 -28.32 27 -29 27 Z M-20 27 C-19 31 -19 31 -19 31 Z M-12 27 C-11 31 -11 31 -11 31 Z M-4 27 C-3 31 -3 31 -3 31 Z M5 27 C6 31 6 31 6 31 Z M13 27 C14 31 14 31 14 31 Z M21 27 C22 31 22 31 22 31 Z M29 27 C29 28.32 29 29.64 29 31 C29.66 31 30.32 31 31 31 C31 29.68 31 28.36 31 27 C30.34 27 29.68 27 29 27 Z M-29 33 C-29 33.99 -29 34.98 -29 36 C-28.34 36 -27.68 36 -27 36 C-27 35.01 -27 34.02 -27 33 C-27.66 33 -28.32 33 -29 33 Z M-20 33 C-19 36 -19 36 -19 36 Z M-12 33 C-11 36 -11 36 -11 36 Z M-4 33 C-3 36 -3 36 -3 36 Z M5 33 C6 36 6 36 6 36 Z M13 33 C14 36 14 36 14 36 Z M21 33 C22 36 22 36 22 36 Z M29 33 C29 33.99 29 34.98 29 36 C29.66 36 30.32 36 31 36 C31 35.01 31 34.02 31 33 C30.34 33 29.68 33 29 33 Z " fill="#0E3950" transform="translate(55,20)"/>
<path d="M0 0 C12.21 0 24.42 0 37 0 C33.73267327 6.53465347 33.73267327 6.53465347 31 9 C27.56595332 9.62041777 24.22507819 9.47067933 20.75 9.3125 C19.81414062 9.28994141 18.87828125 9.26738281 17.9140625 9.24414062 C15.60774326 9.18530595 13.30469162 9.10317146 11 9 C11 9.99 11 10.98 11 12 C18.92 12 26.84 12 35 12 C32.13409501 19.16476248 32.13409501 19.16476248 30 21 C26.75987655 21.49787836 23.58052126 21.3743139 20.3125 21.25 C19.41982422 21.23195313 18.52714844 21.21390625 17.60742188 21.1953125 C15.40448982 21.14819096 13.20210942 21.07644739 11 21 C11 24.96 11 28.92 11 33 C3.28515625 33.09765625 3.28515625 33.09765625 1 33 C0 32 0 32 -0.11352539 28.94897461 C-0.11327443 27.60008731 -0.10771815 26.25119355 -0.09765625 24.90234375 C-0.09515869 23.60546631 -0.09266113 22.30858887 -0.09008789 20.97241211 C-0.08098389 19.31089111 -0.07187988 17.64937012 -0.0625 15.9375 C-0.041875 10.678125 -0.02125 5.41875 0 0 Z " fill="#002B54" transform="translate(56,66)"/>
<path d="M0 0 C3.3 0 6.6 0 10 0 C10.1082077 3.70911942 10.18742278 7.41506456 10.25 11.125 C10.28351562 12.17171875 10.31703125 13.2184375 10.3515625 14.296875 C10.43038241 20.52364797 10.28294408 24.32419594 6 29 C1.20004162 31.89997486 -2.98558934 33.1352325 -8.546875 33.09765625 C-9.39121094 33.09443359 -10.23554688 33.09121094 -11.10546875 33.08789062 C-12.41451172 33.07532227 -12.41451172 33.07532227 -13.75 33.0625 C-15.08224609 33.05573242 -15.08224609 33.05573242 -16.44140625 33.04882812 C-18.62767329 33.037074 -20.81380179 33.02064249 -23 33 C-21 30 -19 27 -17 24 C-14.57421875 23.5234375 -14.57421875 23.5234375 -11.6875 23.375 C-7.94831052 23.16074903 -4.71742965 22.74348593 -1 22 C-0.67 14.74 -0.34 7.48 0 0 Z " fill="#AFDC1D" transform="translate(41,66)"/>
<path d="M0 0 C7.68997261 8.51389824 10.30263432 19.42718447 10.3359375 30.63671875 C10.3425943 31.43801712 10.3492511 32.23931549 10.35610962 33.06489563 C10.3661731 34.7514926 10.37092861 36.43812889 10.37060547 38.12475586 C10.3749596 40.66394114 10.41129199 43.20135771 10.44921875 45.74023438 C10.53670363 58.15253086 8.97178175 69.0835022 2.25 79.8125 C1.63640625 80.80894531 1.0228125 81.80539063 0.390625 82.83203125 C-0.06828125 83.54746094 -0.5271875 84.26289062 -1 85 C-1.99 84.67 -2.98 84.34 -4 84 C-2.26534622 79.3714767 0.07552867 75.27065715 2.5625 71.01171875 C5.62560402 64.59418289 6.31514249 58.36268539 6.3359375 51.36328125 C6.3425943 50.56198288 6.3492511 49.76068451 6.35610962 48.93510437 C6.3661731 47.2485074 6.37092861 45.56187111 6.37060547 43.87524414 C6.3749596 41.33605886 6.41129199 38.79864229 6.44921875 36.25976562 C6.52332516 25.63303673 6.05973358 15.6382454 0.34521484 6.29418945 C-1 4 -1 4 -0.6875 1.6875 C-0.3471875 0.8521875 -0.3471875 0.8521875 0 0 Z " fill="#002B54" transform="translate(102,23)"/>
<path d="M0 0 C0.99 0 1.98 0 3 0 C1.53196507 4.64877727 -0.23912989 9.13026938 -2.09765625 13.6328125 C-3.99909238 18.6209956 -4.17498053 23.26534668 -4.203125 28.5703125 C-4.20882507 29.40658173 -4.21452515 30.24285095 -4.22039795 31.10446167 C-4.22983385 32.87464133 -4.23637633 34.64483845 -4.24023438 36.41503906 C-4.24989089 39.09472273 -4.28090675 41.77362278 -4.3125 44.453125 C-4.39152123 57.16826396 -3.32895796 68.9251226 4.8125 79.3125 C5.204375 79.869375 5.59625 80.42625 6 81 C5.67 81.99 5.34 82.98 5 84 C-2.43898041 77.87378084 -6.23594729 68.29072878 -8 59 C-8.27925011 56.04529011 -8.32737356 53.11123833 -8.3359375 50.14453125 C-8.3425943 49.32103683 -8.3492511 48.49754242 -8.35610962 47.64909363 C-8.3661756 45.91541759 -8.37092853 44.18170328 -8.37060547 42.44799805 C-8.37496014 39.8364039 -8.41129181 37.22652849 -8.44921875 34.61523438 C-8.53464691 21.88848303 -7.11681096 10.92938826 0 0 Z " fill="#002B54" transform="translate(8,24)"/>
<path d="M0 0 C0.99 0.33 1.98 0.66 3 1 C4.1875 3.5625 4.1875 3.5625 5 6 C3.68 6.33 2.36 6.66 1 7 C-2 3.25 -2 3.25 -2 1 C-1.34 0.67 -0.68 0.34 0 0 Z " fill="#002B54" transform="translate(22,9)"/>
<path d="M0 0 C1.65 0.33 3.3 0.66 5 1 C4.34 2.98 3.68 4.96 3 7 C1.68 6.67 0.36 6.34 -1 6 C-0.67 4.02 -0.34 2.04 0 0 Z " fill="#002B55" transform="translate(39,120)"/>
<path d="M0 0 C1.32 0.99 2.64 1.98 4 3 C2.625 5.5 2.625 5.5 1 8 C0.34 8 -0.32 8 -1 8 C-1 7.34 -1 6.68 -1 6 C-1.66 5.67 -2.32 5.34 -3 5 C-2.01 3.35 -1.02 1.7 0 0 Z M1 2 C2 4 2 4 2 4 Z " fill="#002B55" transform="translate(26,113)"/>
<path d="M0 0 C1.32 0 2.64 0 4 0 C4.33 1.98 4.66 3.96 5 6 C3.68 6.33 2.36 6.66 1 7 C0.67 4.69 0.34 2.38 0 0 Z " fill="#002B54" transform="translate(37,2)"/>
<path d="M0 0 C0.99 0 1.98 0 3 0 C3 0.66 3 1.32 3 2 C3.33 2.33 3.66 2.66 4 3 C4 4.32 4 5.64 4 7 C2.68 7 1.36 7 0 7 C-0.38133299 5.0085944 -0.71325582 3.00720923 -1 1 C-0.67 0.67 -0.34 0.34 0 0 Z " fill="#002B55" transform="translate(45,0)"/>
<path d="M0 0 C0.99 0.33 1.98 0.66 3 1 C3 2.98 3 4.96 3 7 C1.68 7 0.36 7 -1 7 C-1.04254356 5.00045254 -1.04080783 2.99958364 -1 1 C-0.67 0.67 -0.34 0.34 0 0 Z M1 2 C2 6 2 6 2 6 Z " fill="#002B55" transform="translate(46,121)"/>
<path d="M0 0 C1.9375 0.8125 1.9375 0.8125 4 2 C4.33 2.99 4.66 3.98 5 5 C4.01 5.66 3.02 6.32 2 7 C0.68 5.35 -0.64 3.7 -2 2 C-1.34 1.34 -0.68 0.68 0 0 Z " fill="#002B54" transform="translate(93,107)"/>
<path d="M0 0 C0.99 0.33 1.98 0.66 3 1 C2.34 2.32 1.68 3.64 1 5 C-0.32 5 -1.64 5 -3 5 C-3 4.01 -3 3.02 -3 2 C-2.01 1.34 -1.02 0.68 0 0 Z " fill="#002B55" transform="translate(98,18)"/>
<path d="M0 0 C1.33333333 0 2.66666667 0 4 0 C3.67 2.31 3.34 4.62 3 7 C1.68 6.67 0.36 6.34 -1 6 C-0.67 4.02 -0.34 2.04 0 0 Z " fill="#002B55" transform="translate(61,0)"/>
<path d="M0 0 C0.66 0.33 1.32 0.66 2 1 C2 2.65 2 4.3 2 6 C0.68 6 -0.64 6 -2 6 C-2.33 4.35 -2.66 2.7 -3 1 C-2.01 0.67 -1.02 0.34 0 0 Z " fill="#002B55" transform="translate(62,121)"/>
<path d="M0 0 C0.99 0.33 1.98 0.66 3 1 C3 1.66 3 2.32 3 3 C2.0409375 3.433125 2.0409375 3.433125 1.0625 3.875 C-1.15206079 4.82823451 -1.15206079 4.82823451 -2 7 C-2.66 6.01 -3.32 5.02 -4 4 C-2.68 2.68 -1.36 1.36 0 0 Z " fill="#002B54" transform="translate(94,13)"/>
<path d="M0 0 C0.99 0 1.98 0 3 0 C3 1.98 3 3.96 3 6 C1.68 6 0.36 6 -1 6 C-0.67 4.02 -0.34 2.04 0 0 Z " fill="#002B54" transform="translate(68,1)"/>
<path d="M0 0 C1.9375 0.75 1.9375 0.75 4 2 C4.75 4.125 4.75 4.125 5 6 C3.125 5.75 3.125 5.75 1 5 C-0.25 2.9375 -0.25 2.9375 -1 1 C-0.67 0.67 -0.34 0.34 0 0 Z " fill="#002B55" transform="translate(88,111)"/>
<path d="M0 0 C0.33 0.99 0.66 1.98 1 3 C3.01508358 3.73323796 3.01508358 3.73323796 5 4 C4.67 4.99 4.34 5.98 4 7 C3.01 6.67 2.02 6.34 1 6 C-0.1875 3.4375 -0.1875 3.4375 -1 1 C-0.67 0.67 -0.34 0.34 0 0 Z " fill="#002B54" transform="translate(16,13)"/>
<path d="M0 0 C0.66 0.33 1.32 0.66 2 1 C2.625 4.0625 2.625 4.0625 3 7 C2.01 6.67 1.02 6.34 0 6 C0.33 5.34 0.66 4.68 1 4 C0.34 4 -0.32 4 -1 4 C-0.67 2.68 -0.34 1.36 0 0 Z " fill="#002B55" transform="translate(67,120)"/>
<path d="M0 0 C0.66 0 1.32 0 2 0 C2.625 1.8125 2.625 1.8125 3 4 C2.01 5.485 2.01 5.485 1 7 C-1 4 -1 4 -0.625 1.8125 C-0.41875 1.214375 -0.2125 0.61625 0 0 Z " fill="#002B54" transform="translate(81,115)"/>
<path d="M0 0 C0.99 0 1.98 0 3 0 C2 2 1 4 0 6 C-0.99 5.67 -1.98 5.34 -3 5 C-1.6875 2.5 -1.6875 2.5 0 0 Z " fill="#002B55" transform="translate(21,111)"/>
<path d="M0 0 C0.99 0.66 1.98 1.32 3 2 C0.625 3.5625 0.625 3.5625 -2 5 C-2.66 4.67 -3.32 4.34 -4 4 C-2.68 2.68 -1.36 1.36 0 0 Z " fill="#002B55" transform="translate(18,107)"/>
<path d="M0 0 C0.99 0.33 1.98 0.66 3 1 C2.01 2.485 2.01 2.485 1 4 C0.34 4 -0.32 4 -1 4 C-1 4.66 -1 5.32 -1 6 C-1.66 6 -2.32 6 -3 6 C-1.125 1.125 -1.125 1.125 0 0 Z " fill="#002B55" transform="translate(85,7)"/>
<path d="M0 0 C0.66 0.33 1.32 0.66 2 1 C1.67 2.65 1.34 4.3 1 6 C0.01 6 -0.98 6 -2 6 C-1.34 4.02 -0.68 2.04 0 0 Z " fill="#002B54" transform="translate(56,122)"/>
<path d="M0 0 C0.99 0 1.98 0 3 0 C3.33 1.98 3.66 3.96 4 6 C3.34 6 2.68 6 2 6 C1.34 4.02 0.68 2.04 0 0 Z " fill="#002B54" transform="translate(71,119)"/>
<path d="M0 0 C0.33 0.66 0.66 1.32 1 2 C1.66 2.33 2.32 2.66 3 3 C3.33 3.99 3.66 4.98 4 6 C2.68 5.34 1.36 4.68 0 4 C0 2.68 0 1.36 0 0 Z " fill="#002B55" transform="translate(12,18)"/>
<path d="M0 0 C0.66 0.33 1.32 0.66 2 1 C1.67 2.65 1.34 4.3 1 6 C0.01 6 -0.98 6 -2 6 C-1.34 4.02 -0.68 2.04 0 0 Z " fill="#002B54" transform="translate(56,0)"/>
<path d="M0 0 C0.28875 0.61875 0.5775 1.2375 0.875 1.875 C1.93720042 4.13325765 1.93720042 4.13325765 4 6 C2.68 5.67 1.36 5.34 0 5 C-0.5625 3.0625 -0.5625 3.0625 -1 1 C-0.67 0.67 -0.34 0.34 0 0 Z " fill="#002B55" transform="translate(28,6)"/>
<path d="M0 0 C0.99 0.33 1.98 0.66 3 1 C3.33 2.65 3.66 4.3 4 6 C1.7522025 3.94766315 0.9977758 2.99332739 0 0 Z " fill="#002B54" transform="translate(84,114)"/>
<path d="M0 0 C1.98 0.99 1.98 0.99 4 2 C3.34 2 2.68 2 2 2 C1.67 3.65 1.34 5.3 1 7 C0 4 0 4 0 0 Z " fill="#002B55" transform="translate(74,2)"/>
<path d="M0 0 C0.66 0.33 1.32 0.66 2 1 C1.34 2.65 0.68 4.3 0 6 C-0.66 5.67 -1.32 5.34 -2 5 C-1.34 3.35 -0.68 1.7 0 0 Z " fill="#002B55" transform="translate(36,119)"/>
<path d="M0 0 C0.66 0 1.32 0 2 0 C2.33 1.98 2.66 3.96 3 6 C0 2.25 0 2.25 0 0 Z " fill="#002B54" transform="translate(76,118)"/>
<path d="M0 0 C0.66 0.33 1.32 0.66 2 1 C0.35 2.65 -1.3 4.3 -3 6 C-2 4 -1 2 0 0 Z " fill="#002B55" transform="translate(90,10)"/>
<path d="M0 0 C0.66 0.33 1.32 0.66 2 1 C1.34 2.65 0.68 4.3 0 6 C-0.66 5.67 -1.32 5.34 -2 5 C-1.34 3.35 -0.68 1.7 0 0 Z " fill="#002B55" transform="translate(80,5)"/>
<path d="M0 0 C0.66 0 1.32 0 2 0 C2.66 1.98 3.32 3.96 4 6 C3.34 6 2.68 6 2 6 C1.34 4.02 0.68 2.04 0 0 Z " fill="#002B54" transform="translate(32,4)"/>
<path d="M0 0 C0.66 0.99 1.32 1.98 2 3 C1.67 3.66 1.34 4.32 1 5 C0.34 4.01 -0.32 3.02 -1 2 C-0.67 1.34 -0.34 0.68 0 0 Z " fill="#002B55" transform="translate(30,119)"/>
<path d="M0 0 C0.99 0 1.98 0 3 0 C3 0.66 3 1.32 3 2 C2.01 2 1.02 2 0 2 C0 1.34 0 0.68 0 0 Z " fill="#002B54" transform="translate(31,117)"/>
</svg>
